PathFileType	4	(X/Y/Z)	C:\Users\Graham\Documents\MATLAB\MOtoNMS_v2_2\MyData\ElaboratedData\S1\17-05-18\dynamicElaborations\rightStSt\\NE2\NE2.trc
DataRate	CameraRate	NumFrames	NumMarkers	Units	OrigDataRate	DataStartFrame
100	100	9	29	mm	100	4
Frame#	Time	V_Sacral			R_ASIS			L_ASIS			R_Knee_Lat			R_Thigh_Upper			R_Thigh_Front			R_Thigh_Rear			L_Knee_Lat			L_Thigh_Upper			L_Thigh_Front			L_Thigh_Rear			R_Ankle_Lat			R_Shank_Upper			R_Shank_Front			R_Shank_Rear			L_Ankle_Lat			L_Shank_Upper			L_Shank_Front			L_Shank_Rear			R_Heel			R_MTP1			R_MTP5			L_Heel			L_MTP1			L_MTP5			Clavicle			C7			R_Acromium			L_Acromium		
		X1	Y1	Z1	X2	Y2	Z2	X3	Y3	Z3	X4	Y4	Z4	X5	Y5	Z5	X6	Y6	Z6	X7	Y7	Z7	X8	Y8	Z8	X9	Y9	Z9	X10	Y10	Z10	X11	Y11	Z11	X12	Y12	Z12	X13	Y13	Z13	X14	Y14	Z14	X15	Y15	Z15	X16	Y16	Z16	X17	Y17	Z17	X18	Y18	Z18	X19	Y19	Z19	X20	Y20	Z20	X21	Y21	Z21	X22	Y22	Z22	X23	Y23	Z23	X24	Y24	Z24	X25	Y25	Z25	X26	Y26	Z26	X27	Y27	Z27	X28	Y28	Z28	X29	Y29	Z29	

19	0.180000	-62.817416	1039.560579	60.160444	134.530143	1025.195097	183.156795	137.664294	1016.880759	-47.554397	192.783549	534.824553	210.408646	182.079339	886.945439	211.798464	228.416501	772.492052	174.009625	189.588655	757.614044	241.108898	52.826264	504.803973	-99.726599	158.208726	836.229212	-74.217185	171.344219	720.827615	-20.656519	135.796665	712.743459	-97.776124	202.158331	109.442695	203.848588	254.562793	328.939041	178.194824	223.309586	218.541710	124.860115	231.544443	211.008150	205.481144	-263.433419	194.139904	-85.597744	-56.364241	313.766993	-71.164365	-154.352089	249.439866	-19.978118	-163.636974	257.319086	-99.355810	127.125251	55.216911	152.496325	349.490660	70.608238	104.877914	349.151692	61.929404	182.317400	-342.625990	220.205814	-35.227380	-194.339553	58.149902	-10.396146	-210.740784	61.308876	-94.997388	138.367967	1444.271629	78.221627	-0.354175	1552.081829	57.775113	62.314265	1468.816153	267.264292	106.115644	1472.763369	-138.202964	
20	0.190000	-62.552872	1039.997185	61.680783	135.440301	1026.167548	184.300904	136.977240	1017.731902	-46.547824	190.033891	534.655648	211.172232	182.678813	887.235926	213.590571	228.534811	772.537923	175.910028	189.269058	757.850709	242.908480	63.053714	504.863216	-100.117691	160.512640	838.092847	-73.512388	176.385209	722.799035	-20.532222	141.933559	714.162646	-98.207544	192.796384	109.268369	203.676668	248.729768	327.792886	178.674150	216.014003	217.954439	125.031738	223.887345	210.185722	205.621684	-258.917456	202.797721	-85.374672	-49.282896	316.214764	-70.958725	-149.123242	254.758407	-19.829614	-158.079656	262.677692	-98.982080	117.484917	55.127324	152.530933	340.005639	69.691331	104.793273	339.643091	61.289000	182.191767	-336.421625	233.764108	-35.088075	-196.980435	61.488658	-9.757104	-213.590223	66.097305	-95.279354	138.494570	1445.300853	79.975337	-0.417079	1552.969435	60.188967	63.297751	1469.640802	269.275585	105.369058	1474.257869	-136.265526	
21	0.200000	-62.448098	1040.544305	63.193817	136.219685	1027.086817	185.266739	136.181204	1018.630751	-45.722408	186.385048	534.410125	211.932533	182.981733	887.284080	215.524366	228.269267	772.312871	178.021071	188.127480	757.800167	244.696087	73.058281	505.329197	-100.469517	162.448549	840.087680	-73.057343	181.109582	724.929745	-20.698535	147.528659	715.830501	-98.850042	183.315702	109.104658	203.477305	242.355807	326.703377	179.231792	208.447462	217.400201	125.185502	215.787366	209.407505	205.793282	-254.011411	211.456794	-85.058763	-41.982582	319.050669	-70.536192	-143.565665	260.391687	-19.568933	-152.054249	268.194381	-98.540594	107.772535	55.025909	152.563355	330.419953	68.878899	104.627696	330.088316	60.771727	181.994607	-329.880969	246.426301	-34.837707	-197.961549	65.446201	-9.161760	-214.838782	71.442555	-95.616669	138.545816	1446.324829	81.560921	-0.541699	1553.911477	62.491302	64.269448	1470.400805	271.134525	104.529621	1475.723859	-134.476822	
22	0.210000	-62.468123	1041.256126	64.692934	136.864704	1027.960571	186.060155	135.343697	1019.633110	-45.058941	181.959292	534.120789	212.711046	182.903013	887.100028	217.473151	227.489345	771.829635	180.178945	186.177305	757.489093	246.365548	82.755386	506.293633	-100.815867	164.055375	842.262526	-72.798757	185.496914	727.260222	-21.068491	152.537643	717.781617	-99.602163	173.789884	108.951020	203.311435	235.552589	325.695240	179.898449	200.670025	216.907182	125.377324	207.365257	208.688118	206.041170	-248.750383	219.822296	-84.625422	-34.514423	322.276406	-70.018964	-137.601470	266.173570	-19.242132	-145.624119	273.793678	-98.072548	98.049876	54.937125	152.611408	320.818308	68.156292	104.493311	320.543760	60.316514	181.819280	-323.188680	257.714256	-34.379441	-196.975590	69.905568	-8.667583	-214.207266	77.132164	-95.959661	138.521410	1447.361128	82.963844	-0.718011	1554.921238	64.678676	65.229518	1471.092856	272.830537	103.581455	1477.166101	-132.854009	
23	0.220000	-62.582738	1042.179238	66.158051	137.364084	1028.802304	186.716170	134.516899	1020.789319	-44.514647	176.908898	533.815475	213.508930	182.380453	886.729922	219.317245	226.108405	771.138741	182.231336	183.519566	756.986964	247.850547	92.091356	507.817020	-101.195758	165.419516	844.671626	-72.661970	189.561556	729.838379	-21.531353	157.010207	720.050054	-100.359633	164.265496	108.813015	203.211529	228.420293	324.786665	180.655515	192.712445	216.494025	125.635144	198.745774	208.043741	206.373882	-243.104894	227.571999	-84.069222	-26.889870	325.837331	-69.542870	-131.122983	271.876288	-18.902924	-138.820979	279.344455	-97.614421	88.357461	54.874318	152.681125	311.252171	67.518065	104.458746	311.033476	59.891342	181.726974	-316.443679	267.215925	-33.661741	-193.757546	74.698826	-8.302116	-211.457781	82.905766	-96.247148	138.424208	1448.433769	84.179823	-0.934294	1556.011076	66.747746	66.171802	1471.734778	274.359238	102.515527	1478.605599	-131.406018	
24	0.230000	-62.771048	1043.343670	67.558992	137.703321	1029.628106	187.290244	133.731304	1022.134870	-44.032126	171.389741	533.514636	214.309306	181.390593	886.242874	220.962200	224.107743	770.316273	184.058685	180.314965	756.385073	249.122402	101.037034	509.915482	-101.642311	166.655496	847.361854	-72.564441	193.342131	732.709539	-21.974015	161.071571	722.664813	-101.032781	154.763106	108.698979	203.181074	221.036807	323.986954	181.449619	184.584667	216.166778	125.958504	190.033990	207.487462	206.769859	-236.990030	234.389739	-83.404391	-19.088931	329.621809	-69.222714	-124.024565	277.239784	-18.595644	-131.644829	284.662849	-97.191243	78.713630	54.841487	152.768499	301.740537	66.959543	104.542215	301.554349	59.483883	181.740412	-309.648642	274.633568	-32.690482	-188.140184	79.608654	-8.053315	-206.435987	88.471789	-96.414075	138.260165	1449.568077	85.217575	-1.178944	1557.188873	68.695921	67.083355	1472.361898	275.724483	101.333622	1480.073239	-130.130716	
25	0.240000	-63.023700	1044.756860	68.860715	137.869594	1030.453023	187.845006	132.994964	1023.684855	-43.551182	165.535253	533.230967	215.085535	179.954006	885.713610	222.350559	221.540840	769.446316	185.586909	176.744861	755.772750	250.181509	109.580557	512.555324	-102.174126	167.879894	850.359800	-72.430160	196.886986	735.905172	-22.301974	164.888511	725.644406	-101.560213	145.282954	108.616850	203.201198	213.453907	323.295626	182.219092	176.290941	215.919770	126.326692	181.296041	207.025605	207.192330	-230.285494	239.997160	-82.661924	-11.071774	333.473018	-69.124333	-116.230572	282.010105	-18.342145	-124.067966	289.528311	-96.814177	69.118789	54.835998	152.862718	292.278328	66.473104	104.720090	292.086414	59.092299	181.849062	-302.718754	279.809498	-31.527418	-180.092910	84.380918	-7.871142	-199.101563	93.529761	-96.400797	138.037790	1450.785060	86.099239	-1.442136	1558.455207	70.522099	67.946006	1473.020740	276.939296	100.050477	1481.602080	-129.013922	
26	0.250000	-63.342683	1046.401291	70.029531	137.855893	1031.287468	188.435895	132.297015	1025.432251	-43.020770	159.437954	532.970638	215.811101	178.130050	885.206086	223.465559	218.518144	768.603341	186.790792	172.973502	755.218094	251.046860	117.720916	515.656765	-102.790752	169.184745	853.661784	-72.201508	200.238330	739.432068	-22.454066	168.628173	728.991033	-101.915407	135.813203	108.571795	203.240892	205.700385	322.702973	182.919649	167.843998	215.738935	126.710698	172.550924	206.655924	207.605402	-222.861771	244.179648	-81.884081	-2.791668	337.211066	-69.250911	-107.713043	285.976780	-18.136824	-116.043134	293.710442	-96.482070	59.561949	54.851753	152.949936	282.848064	66.047880	104.944180	282.604907	58.718209	182.021091	-295.507913	282.724581	-30.276186	-169.730522	88.750602	-7.680150	-189.535441	97.799591	-96.162279	137.767310	1452.096227	86.858114	-1.716997	1559.801663	72.227149	68.739449	1473.761027	278.025143	98.693542	1483.219640	-128.030642	
27	0.260000	-63.739064	1048.235865	71.039156	137.663465	1032.134254	189.099292	131.613574	1027.349333	-42.408329	153.143534	532.735385	216.467071	176.003915	884.762120	224.327171	215.178087	767.838517	187.689045	169.121552	754.757862	251.746799	125.463360	519.105868	-103.472662	170.617135	857.229588	-71.845999	203.418395	743.263772	-22.407502	172.419419	732.685360	-102.104648	126.338683	108.565012	203.267381	197.790519	322.192147	183.538706	159.272344	215.606062	127.083952	163.776424	206.368035	207.985340	-214.605509	246.803441	-81.117323	5.793013	340.660400	-69.546438	-98.495892	288.999488	-17.950746	-107.514699	297.001061	-96.185456	50.026903	54.882420	153.016772	273.430893	65.671118	105.160736	273.090854	58.362551	182.216937	-287.844831	283.473176	-29.060368	-157.289338	92.476218	-7.398838	-177.920235	101.054554	-95.675736	137.459727	1453.499861	87.534014	-2.000070	1561.210598	73.813894	69.444924	1474.627151	279.009415	97.300379	1484.941338	-127.148419	
